<?xml version="1.0" encoding="UTF-8"?>
<svg xmlns="http://www.w3.org/2000/svg" xmlns:xlink="http://www.w3.org/1999/xlink" width="32px" height="320px" viewBox="0 0 32 30" version="1.1">
<g id="surface1">
<path style=" stroke:none;fill-rule:nonzero;fill:rgb(0.392157%,0.392157%,0%);fill-opacity:1;" d="M 19.636719 30.238281 C 13.089844 30.238281 6.667969 30.238281 0.242188 30.238281 C 0.242188 20.238281 0.242188 10.238281 0.242188 0.238281 C 10.910156 0.238281 21.574219 0.238281 32.242188 0.238281 C 32.242188 10.238281 32.242188 20.238281 32.242188 30.238281 C 28.082031 30.238281 23.917969 30.238281 19.636719 30.238281 M 28.289062 13.035156 C 28.300781 12.457031 28.363281 11.878906 28.316406 11.304688 C 28.230469 10.289062 28.160156 9.296875 29.179688 8.460938 C 29.304688 8.324219 29.429688 8.183594 29.675781 7.945312 C 30.257812 7.027344 30.332031 6.132812 29.441406 5.148438 C 28.21875 4.039062 26.664062 3.945312 25.605469 4.917969 C 24.265625 6.148438 24.402344 7.257812 26.210938 9.011719 C 26.472656 9.449219 26.878906 9.867188 26.964844 10.335938 C 27.113281 11.140625 26.992188 11.988281 27.113281 12.800781 C 27.203125 13.425781 27.53125 13.894531 28.136719 13.121094 C 28.136719 13.121094 28.171875 13.136719 28.289062 13.035156 M 2.5625 6.496094 C 2.988281 7.269531 3.410156 8.042969 3.878906 8.984375 C 4.121094 9.203125 4.363281 9.421875 4.667969 9.773438 C 5.5625 10.417969 5.855469 11.140625 5.1875 12.160156 C 4.894531 12.605469 4.835938 13.203125 4.699219 13.742188 C 3.613281 18.046875 5.792969 23.117188 9.507812 24.9375 C 10.085938 25.550781 10.683594 26.125 11.777344 25.726562 C 11.898438 25.789062 12.019531 25.855469 12.207031 26.058594 C 12.585938 26.097656 12.960938 26.132812 13.496094 26.1875 C 13.597656 26.203125 13.703125 26.21875 13.882812 26.382812 C 14.421875 26.542969 14.964844 26.84375 15.5 26.832031 C 16.289062 26.816406 17.082031 26.609375 17.863281 26.433594 C 21.113281 25.714844 23.457031 23.851562 25.09375 20.890625 C 25.210938 20.753906 25.324219 20.617188 25.484375 20.304688 C 25.554688 19.886719 25.628906 19.46875 25.78125 18.941406 C 25.832031 18.816406 25.886719 18.695312 25.945312 18.382812 C 25.949219 18.128906 25.953125 17.878906 26.085938 17.496094 C 26.195312 17.046875 26.472656 16.5625 26.386719 16.152344 C 26.054688 14.535156 25.878906 12.8125 25.160156 11.367188 C 22.6875 6.40625 16.957031 4.1875 11.636719 6.0625 C 10.421875 6.492188 9.460938 6.726562 8.464844 5.546875 C 8.148438 5.382812 7.828125 5.214844 7.453125 4.898438 C 7.089844 4.53125 6.765625 4.113281 6.359375 3.804688 C 5.046875 2.8125 2.925781 3.484375 2.4375 5.042969 C 2.402344 5.152344 2.613281 5.335938 2.703125 5.675781 C 2.695312 5.925781 2.683594 6.179688 2.5625 6.496094 Z M 2.5625 6.496094 "/>
<path style=" stroke:none;fill-rule:nonzero;fill:rgb(34.117648%,21.176471%,1.568628%);fill-opacity:1;" d="M 12.136719 25.917969 C 12.019531 25.855469 11.898438 25.789062 11.652344 25.652344 C 10.84375 25.207031 10.160156 24.839844 9.421875 24.410156 C 5.359375 21.21875 4 16.496094 5.898438 12.304688 C 6.773438 10.367188 6.773438 10.367188 5.167969 9.3125 C 7.945312 9.152344 7.945312 9.152344 8.398438 7.175781 C 9.152344 7.738281 9.789062 7.785156 10.539062 7.257812 C 11.011719 6.925781 11.617188 6.71875 12.191406 6.59375 C 13.773438 6.25 15.375 5.796875 16.878906 6.574219 C 16.464844 6.601562 16.140625 6.605469 15.820312 6.597656 C 9.460938 6.417969 4.898438 11.375 5.691406 17.65625 C 5.730469 17.847656 5.777344 17.972656 5.839844 18.183594 C 6.90625 21.953125 9.214844 24.386719 13.148438 25.304688 C 13.414062 25.382812 13.613281 25.425781 13.902344 25.515625 C 15.226562 25.535156 16.460938 25.503906 17.695312 25.554688 C 17.695312 25.726562 17.695312 25.828125 17.589844 25.941406 C 16.261719 26.046875 15.035156 26.136719 13.804688 26.230469 C 13.703125 26.21875 13.597656 26.203125 13.34375 26.128906 C 12.84375 26.019531 12.492188 25.96875 12.136719 25.917969 Z M 12.136719 25.917969 "/>
<path style=" stroke:none;fill-rule:nonzero;fill:rgb(9.019608%,5.490196%,0.392157%);fill-opacity:1;" d="M 16.972656 6.542969 C 15.375 5.796875 13.773438 6.25 12.191406 6.59375 C 11.617188 6.71875 11.011719 6.925781 10.539062 7.257812 C 9.789062 7.785156 9.152344 7.738281 8.386719 7.09375 C 8.289062 6.765625 8.28125 6.546875 8.324219 6.230469 C 8.421875 5.984375 8.472656 5.84375 8.527344 5.703125 C 9.460938 6.726562 10.421875 6.492188 11.636719 6.0625 C 16.957031 4.1875 22.6875 6.40625 25.160156 11.367188 C 25.878906 12.8125 26.054688 14.535156 26.386719 16.152344 C 26.472656 16.5625 26.195312 17.046875 25.957031 17.558594 C 25.789062 17.621094 25.75 17.621094 25.699219 17.507812 C 25.894531 15.660156 25.347656 14.070312 24.792969 12.449219 C 23.929688 9.925781 22.191406 8.210938 19.851562 7.070312 C 19.109375 6.707031 18.167969 6.734375 17.261719 6.585938 C 17.125 6.585938 17.046875 6.570312 16.972656 6.542969 Z M 16.972656 6.542969 "/>
<path style=" stroke:none;fill-rule:nonzero;fill:rgb(11.764706%,7.058824%,0.392157%);fill-opacity:1;" d="M 5.0625 9.347656 C 6.773438 10.367188 6.773438 10.367188 5.898438 12.304688 C 4 16.496094 5.359375 21.21875 9.414062 24.488281 C 9.453125 24.683594 9.449219 24.738281 9.445312 24.792969 C 5.792969 23.117188 3.613281 18.046875 4.699219 13.742188 C 4.835938 13.203125 4.894531 12.605469 5.1875 12.160156 C 5.855469 11.140625 5.5625 10.417969 4.644531 9.628906 C 4.613281 9.433594 4.613281 9.382812 4.683594 9.324219 C 4.859375 9.328125 4.960938 9.339844 5.0625 9.347656 Z M 5.0625 9.347656 "/>
<path style=" stroke:none;fill-rule:nonzero;fill:rgb(9.803922%,5.882353%,0.392157%);fill-opacity:1;" d="M 25.707031 17.617188 C 25.75 17.621094 25.789062 17.621094 25.894531 17.625 C 25.953125 17.878906 25.949219 18.128906 25.894531 18.5 C 25.792969 18.761719 25.75 18.90625 25.703125 19.050781 C 25.628906 19.46875 25.554688 19.886719 25.398438 20.421875 C 25.203125 20.679688 25.085938 20.816406 24.96875 20.953125 C 23.457031 23.851562 21.113281 25.714844 17.863281 26.433594 C 17.082031 26.609375 16.289062 26.816406 15.5 26.832031 C 14.964844 26.84375 14.421875 26.542969 13.84375 26.308594 C 15.035156 26.136719 16.261719 26.046875 17.675781 25.917969 C 18.695312 25.429688 19.527344 24.972656 20.378906 24.460938 C 20.394531 24.410156 20.394531 24.300781 20.453125 24.289062 C 20.589844 24.257812 20.664062 24.234375 20.832031 24.21875 C 22.378906 23.585938 23.542969 22.6875 23.929688 20.984375 C 24.175781 20.464844 24.390625 20.019531 24.671875 19.53125 C 25.0625 18.863281 25.382812 18.242188 25.707031 17.617188 Z M 25.707031 17.617188 "/>
<path style=" stroke:none;fill-rule:nonzero;fill:rgb(65.098041%,45.490196%,10.980392%);fill-opacity:1;" d="M 26.09375 8.878906 C 24.402344 7.257812 24.265625 6.148438 25.605469 4.917969 C 26.664062 3.945312 28.21875 4.039062 29.507812 5.304688 C 29.566406 6.320312 29.5625 7.183594 29.554688 8.046875 C 29.429688 8.183594 29.304688 8.324219 29.050781 8.539062 C 28.582031 9.035156 27.976562 9.441406 27.949219 9.878906 C 27.882812 10.957031 28.078125 12.050781 28.171875 13.136719 C 28.171875 13.136719 28.136719 13.121094 28.058594 13.105469 C 27.789062 12.746094 27.488281 12.417969 27.433594 12.054688 C 27.332031 11.402344 27.386719 10.734375 27.359375 10.070312 C 27.324219 9.289062 26.953125 8.828125 26.09375 8.878906 M 26.574219 8.320312 C 27.0625 8.304688 27.707031 8.480469 28.011719 8.238281 C 28.539062 7.824219 29.128906 7.175781 29.1875 6.578125 C 29.261719 5.800781 28.738281 5.085938 27.742188 5.011719 C 26.847656 4.949219 26.03125 5.0625 25.632812 5.992188 C 25.21875 6.953125 25.632812 7.667969 26.574219 8.320312 Z M 26.574219 8.320312 "/>
<path style=" stroke:none;fill-rule:nonzero;fill:rgb(9.019608%,5.490196%,0.392157%);fill-opacity:1;" d="M 2.710938 5.484375 C 2.613281 5.335938 2.402344 5.152344 2.4375 5.042969 C 2.925781 3.484375 5.046875 2.8125 6.359375 3.804688 C 6.765625 4.113281 7.089844 4.53125 7.414062 4.996094 C 6.769531 4.910156 6.164062 4.71875 5.515625 4.5 C 5.414062 4.421875 5.363281 4.367188 5.296875 4.234375 C 4.285156 3.863281 3.570312 4.316406 3.160156 5.488281 C 3.15625 5.484375 3.164062 5.488281 3.089844 5.488281 C 2.914062 5.484375 2.8125 5.484375 2.710938 5.484375 Z M 2.710938 5.484375 "/>
<path style=" stroke:none;fill-rule:nonzero;fill:rgb(34.117648%,21.176471%,1.568628%);fill-opacity:1;" d="M 2.707031 5.582031 C 2.8125 5.484375 2.914062 5.484375 3.089844 5.578125 C 3.214844 5.925781 3.171875 6.265625 3.324219 6.425781 C 4.105469 7.253906 4.984375 8.015625 4.609375 9.328125 C 4.613281 9.382812 4.613281 9.433594 4.613281 9.5625 C 4.363281 9.421875 4.121094 9.203125 3.859375 8.8125 C 3.453125 7.90625 3.066406 7.167969 2.675781 6.429688 C 2.683594 6.179688 2.695312 5.925781 2.707031 5.582031 Z M 2.707031 5.582031 "/>
<path style=" stroke:none;fill-rule:nonzero;fill:rgb(47.450981%,33.333334%,8.235294%);fill-opacity:1;" d="M 26.152344 8.945312 C 26.953125 8.828125 27.324219 9.289062 27.359375 10.070312 C 27.386719 10.734375 27.332031 11.402344 27.433594 12.054688 C 27.488281 12.417969 27.789062 12.746094 28.074219 13.117188 C 27.53125 13.894531 27.203125 13.425781 27.113281 12.800781 C 26.992188 11.988281 27.113281 11.140625 26.964844 10.335938 C 26.878906 9.867188 26.472656 9.449219 26.152344 8.945312 Z M 26.152344 8.945312 "/>
<path style=" stroke:none;fill-rule:nonzero;fill:rgb(47.450981%,33.333334%,8.235294%);fill-opacity:1;" d="M 28.230469 13.085938 C 28.078125 12.050781 27.882812 10.957031 27.949219 9.878906 C 27.976562 9.441406 28.582031 9.035156 29.011719 8.59375 C 28.160156 9.296875 28.230469 10.289062 28.316406 11.304688 C 28.363281 11.878906 28.300781 12.457031 28.230469 13.085938 Z M 28.230469 13.085938 "/>
<path style=" stroke:none;fill-rule:nonzero;fill:rgb(34.117648%,21.176471%,1.568628%);fill-opacity:1;" d="M 5.558594 4.53125 C 6.164062 4.71875 6.769531 4.910156 7.441406 5.074219 C 7.828125 5.214844 8.148438 5.382812 8.496094 5.625 C 8.472656 5.84375 8.421875 5.984375 8.277344 6.171875 C 8.023438 6.023438 7.777344 5.640625 7.710938 5.667969 C 6.492188 6.164062 6.132812 5.160156 5.558594 4.53125 Z M 5.558594 4.53125 "/>
<path style=" stroke:none;fill-rule:nonzero;fill:rgb(9.019608%,5.490196%,0.392157%);fill-opacity:1;" d="M 2.621094 6.460938 C 3.066406 7.167969 3.453125 7.90625 3.839844 8.730469 C 3.410156 8.042969 2.988281 7.269531 2.621094 6.460938 Z M 2.621094 6.460938 "/>
<path style=" stroke:none;fill-rule:nonzero;fill:rgb(9.803922%,5.882353%,0.392157%);fill-opacity:1;" d="M 9.476562 24.863281 C 9.449219 24.738281 9.453125 24.683594 9.464844 24.550781 C 10.160156 24.839844 10.84375 25.207031 11.585938 25.636719 C 10.683594 26.125 10.085938 25.550781 9.476562 24.863281 Z M 9.476562 24.863281 "/>
<path style=" stroke:none;fill-rule:nonzero;fill:rgb(47.450981%,33.333334%,8.235294%);fill-opacity:1;" d="M 29.617188 7.996094 C 29.5625 7.183594 29.566406 6.320312 29.566406 5.367188 C 30.332031 6.132812 30.257812 7.027344 29.617188 7.996094 Z M 29.617188 7.996094 "/>
<path style=" stroke:none;fill-rule:nonzero;fill:rgb(9.803922%,5.882353%,0.392157%);fill-opacity:1;" d="M 12.171875 25.988281 C 12.492188 25.96875 12.84375 26.019531 13.265625 26.121094 C 12.960938 26.132812 12.585938 26.097656 12.171875 25.988281 Z M 12.171875 25.988281 "/>
<path style=" stroke:none;fill-rule:nonzero;fill:rgb(9.019608%,5.490196%,0.392157%);fill-opacity:1;" d="M 25.03125 20.921875 C 25.085938 20.816406 25.203125 20.679688 25.378906 20.511719 C 25.324219 20.617188 25.210938 20.753906 25.03125 20.921875 Z M 25.03125 20.921875 "/>
<path style=" stroke:none;fill-rule:nonzero;fill:rgb(9.019608%,5.490196%,0.392157%);fill-opacity:1;" d="M 25.742188 18.996094 C 25.75 18.90625 25.792969 18.761719 25.890625 18.59375 C 25.886719 18.695312 25.832031 18.816406 25.742188 18.996094 Z M 25.742188 18.996094 "/>
<path style=" stroke:none;fill-rule:nonzero;fill:rgb(75.294119%,54.509807%,15.686275%);fill-opacity:1;" d="M 20.742188 24.21875 C 20.664062 24.234375 20.589844 24.257812 20.382812 24.296875 C 20.128906 24.378906 20 24.445312 19.804688 24.558594 C 19.476562 24.691406 19.214844 24.777344 18.921875 24.800781 C 18.4375 24.203125 18.300781 24.542969 18.101562 24.988281 C 17.765625 25.023438 17.515625 25.042969 17.230469 24.976562 C 17.113281 24.566406 17.03125 24.25 17.011719 23.882812 C 18.113281 23.355469 19.148438 22.878906 20.234375 22.378906 C 20.269531 22.195312 20.257812 22.039062 20.191406 21.824219 C 19.949219 21.65625 19.769531 21.542969 19.585938 21.347656 C 19.589844 21.160156 19.597656 21.054688 19.679688 20.917969 C 20.183594 20.507812 20.585938 20.144531 21.203125 20.65625 C 21.339844 20.765625 21.90625 20.652344 21.984375 20.5 C 22.449219 19.59375 22.867188 18.660156 23.199219 17.703125 C 23.265625 17.503906 22.96875 17 22.734375 16.917969 C 21.953125 16.644531 21.972656 16.105469 22.164062 15.46875 C 23.496094 15.085938 23.582031 14.644531 22.667969 13.125 C 22.460938 12.742188 22.277344 12.4375 22.09375 12.0625 C 22.023438 11.875 21.953125 11.757812 21.851562 11.582031 C 21.578125 11.574219 21.335938 11.621094 21.027344 11.714844 C 20.90625 11.847656 20.847656 11.933594 20.707031 12.011719 C 20.429688 11.914062 20.234375 11.820312 20.019531 11.640625 C 19.949219 11.328125 19.777344 11.011719 19.871094 10.886719 C 20.648438 9.84375 19.816406 9.5 19.097656 9.140625 C 18.597656 8.894531 18.0625 8.710938 17.53125 8.539062 C 16.914062 8.339844 16.351562 8.261719 16.136719 9.125 C 16.082031 9.34375 15.675781 9.636719 15.453125 9.617188 C 15.167969 9.59375 14.722656 9.335938 14.664062 9.101562 C 14.441406 8.238281 13.863281 8.308594 13.261719 8.503906 C 12.582031 8.726562 11.925781 9.019531 11.277344 9.324219 C 10.675781 9.609375 10.3125 9.945312 10.761719 10.714844 C 10.914062 10.980469 10.558594 11.53125 10.351562 11.960938 C 10.15625 11.960938 10.046875 11.960938 9.898438 11.886719 C 8.972656 11.09375 8.742188 11.214844 8.21875 12.683594 C 8.15625 12.808594 8.128906 12.886719 8.035156 13.011719 C 7.011719 14.925781 7.128906 15.28125 8.792969 15.515625 C 8.726562 16.042969 8.625 16.496094 8.433594 16.925781 C 7.171875 17.105469 7.105469 17.363281 7.90625 18.726562 C 7.929688 18.769531 8.015625 18.816406 8.027344 18.890625 C 8.164062 19.1875 8.292969 19.40625 8.402344 19.667969 C 8.382812 19.707031 8.40625 19.792969 8.414062 19.875 C 8.796875 20.816406 9.242188 21.28125 10.027344 20.207031 C 10.429688 20.398438 10.746094 20.589844 11.050781 20.855469 C 10.921875 21.429688 10.601562 22.292969 10.738281 22.371094 C 11.730469 22.929688 12.785156 23.4375 13.886719 23.703125 C 14.144531 23.761719 14.648438 22.828125 15.128906 22.359375 C 15.558594 22.445312 15.902344 22.53125 16.238281 22.691406 C 16.253906 22.863281 16.28125 22.960938 16.273438 23.148438 C 16.253906 23.476562 16.261719 23.71875 16.25 24.050781 C 15.6875 24.328125 15.144531 24.511719 14.605469 24.707031 C 14.097656 24.890625 13.589844 25.078125 13.078125 25.265625 C 9.214844 24.386719 6.90625 21.953125 5.863281 18.140625 C 5.816406 17.867188 5.757812 17.726562 5.699219 17.589844 C 4.898438 11.375 9.460938 6.417969 15.820312 6.597656 C 16.140625 6.605469 16.464844 6.601562 16.878906 6.574219 C 17.046875 6.570312 17.125 6.585938 17.324219 6.644531 C 17.707031 6.792969 17.96875 6.894531 18.234375 6.976562 C 22.535156 8.351562 25.183594 11.972656 25.054688 16.421875 C 25.023438 17.476562 24.761719 18.527344 24.609375 19.578125 C 24.390625 20.019531 24.175781 20.464844 23.855469 21.019531 C 22.75 22.160156 21.746094 23.191406 20.742188 24.21875 Z M 20.742188 24.21875 "/>
<path style=" stroke:none;fill-rule:nonzero;fill:rgb(73.333335%,52.549022%,14.901961%);fill-opacity:1;" d="M 5.515625 4.5 C 6.132812 5.160156 6.492188 6.164062 7.710938 5.667969 C 7.777344 5.640625 8.023438 6.023438 8.230469 6.273438 C 8.28125 6.546875 8.289062 6.765625 8.304688 7.066406 C 7.945312 9.152344 7.945312 9.152344 5.167969 9.3125 C 4.960938 9.339844 4.859375 9.328125 4.683594 9.324219 C 4.984375 8.015625 4.105469 7.253906 3.324219 6.425781 C 3.171875 6.265625 3.214844 5.925781 3.167969 5.578125 C 3.164062 5.488281 3.15625 5.484375 3.238281 5.460938 C 3.988281 5.058594 4.65625 4.679688 5.324219 4.304688 C 5.363281 4.367188 5.414062 4.421875 5.515625 4.5 Z M 5.515625 4.5 "/>
<path style=" stroke:none;fill-rule:nonzero;fill:rgb(80.784315%,59.215689%,18.431373%);fill-opacity:1;" d="M 13.148438 25.304688 C 13.589844 25.078125 14.097656 24.890625 14.605469 24.707031 C 15.144531 24.511719 15.6875 24.328125 16.335938 24.042969 C 16.613281 23.9375 16.78125 23.933594 16.949219 23.929688 C 17.03125 24.25 17.113281 24.566406 17.132812 25.011719 C 15.988281 25.246094 14.902344 25.359375 13.816406 25.472656 C 13.613281 25.425781 13.414062 25.382812 13.148438 25.304688 Z M 13.148438 25.304688 "/>
<path style=" stroke:none;fill-rule:nonzero;fill:rgb(64.313728%,45.09804%,10.196079%);fill-opacity:1;" d="M 13.902344 25.515625 C 14.902344 25.359375 15.988281 25.246094 17.171875 25.101562 C 17.515625 25.042969 17.765625 25.023438 18.179688 25.007812 C 18.398438 25.039062 18.445312 25.058594 18.441406 25.128906 C 18.15625 25.277344 17.925781 25.378906 17.699219 25.476562 C 16.460938 25.503906 15.226562 25.535156 13.902344 25.515625 Z M 13.902344 25.515625 "/>
<path style=" stroke:none;fill-rule:nonzero;fill:rgb(30.588236%,19.215687%,1.176471%);fill-opacity:1;" d="M 17.695312 25.554688 C 17.925781 25.378906 18.15625 25.277344 18.503906 25.113281 C 18.734375 24.984375 18.84375 24.925781 18.957031 24.867188 C 19.214844 24.777344 19.476562 24.691406 19.886719 24.558594 C 20.148438 24.515625 20.253906 24.515625 20.363281 24.515625 C 19.527344 24.972656 18.695312 25.429688 17.777344 25.910156 C 17.695312 25.828125 17.695312 25.726562 17.695312 25.554688 Z M 17.695312 25.554688 "/>
<path style=" stroke:none;fill-rule:nonzero;fill:rgb(64.313728%,45.09804%,10.196079%);fill-opacity:1;" d="M 5.691406 17.65625 C 5.757812 17.726562 5.816406 17.867188 5.851562 18.050781 C 5.777344 17.972656 5.730469 17.847656 5.691406 17.65625 Z M 5.691406 17.65625 "/>
<path style=" stroke:none;fill-rule:nonzero;fill:rgb(34.117648%,21.176471%,1.568628%);fill-opacity:1;" d="M 24.671875 19.53125 C 24.761719 18.527344 25.023438 17.476562 25.054688 16.421875 C 25.183594 11.972656 22.535156 8.351562 18.234375 6.976562 C 17.96875 6.894531 17.707031 6.792969 17.382812 6.640625 C 18.167969 6.734375 19.109375 6.707031 19.851562 7.070312 C 22.191406 8.210938 23.929688 9.925781 24.792969 12.449219 C 25.347656 14.070312 25.894531 15.660156 25.699219 17.507812 C 25.382812 18.242188 25.0625 18.863281 24.671875 19.53125 Z M 24.671875 19.53125 "/>
<path style=" stroke:none;fill-rule:nonzero;fill:rgb(30.588236%,19.215687%,1.176471%);fill-opacity:1;" d="M 20.832031 24.21875 C 21.746094 23.191406 22.75 22.160156 23.828125 21.097656 C 23.542969 22.6875 22.378906 23.585938 20.832031 24.21875 Z M 20.832031 24.21875 "/>
<path style=" stroke:none;fill-rule:nonzero;fill:rgb(64.313728%,45.09804%,10.196079%);fill-opacity:1;" d="M 20.378906 24.460938 C 20.253906 24.515625 20.148438 24.515625 19.957031 24.515625 C 20 24.445312 20.128906 24.378906 20.324219 24.304688 C 20.394531 24.300781 20.394531 24.410156 20.378906 24.460938 Z M 20.378906 24.460938 "/>
<path style=" stroke:none;fill-rule:nonzero;fill:rgb(7.450981%,5.098039%,1.568628%);fill-opacity:1;" d="M 26.488281 8.285156 C 25.632812 7.667969 25.21875 6.953125 25.632812 5.992188 C 26.03125 5.0625 26.847656 4.949219 27.742188 5.011719 C 28.738281 5.085938 29.261719 5.800781 29.1875 6.578125 C 29.128906 7.175781 28.539062 7.824219 28.011719 8.238281 C 27.707031 8.480469 27.0625 8.304688 26.488281 8.285156 Z M 26.488281 8.285156 "/>
<path style=" stroke:none;fill-rule:nonzero;fill:rgb(34.117648%,21.176471%,1.568628%);fill-opacity:1;" d="M 5.296875 4.234375 C 4.65625 4.679688 3.988281 5.058594 3.242188 5.460938 C 3.570312 4.316406 4.285156 3.863281 5.296875 4.234375 Z M 5.296875 4.234375 "/>
<path style=" stroke:none;fill-rule:nonzero;fill:rgb(0.784314%,0.784314%,0.392157%);fill-opacity:1;" d="M 16.242188 22.613281 C 15.902344 22.53125 15.558594 22.445312 15.078125 22.3125 C 14.808594 22.226562 14.679688 22.191406 14.511719 22.097656 C 13.679688 22.089844 12.878906 22.136719 12.082031 22.175781 C 12.078125 22.167969 12.09375 22.167969 12.097656 22.074219 C 12.085938 21.636719 12.046875 21.289062 12.054688 20.941406 C 12.082031 19.75 11.464844 19.246094 10.296875 19.285156 C 10.019531 19.296875 9.746094 19.28125 9.429688 19.234375 C 9.335938 19.136719 9.277344 19.085938 9.214844 18.941406 C 9.375 18.289062 9.480469 17.710938 9.710938 17.183594 C 10.195312 16.050781 9.835938 14.914062 8.734375 14.199219 C 8.890625 13.769531 9.046875 13.429688 9.28125 13.113281 C 9.78125 13.5 10.246094 13.820312 10.609375 14.226562 C 11.539062 15.257812 12.421875 16.328125 13.355469 17.464844 C 13.832031 17.878906 14.242188 18.410156 14.746094 18.511719 C 16.386719 18.839844 17.53125 17.996094 17.773438 16.453125 C 18.003906 14.953125 17.148438 13.882812 15.414062 13.578125 C 15.15625 13.410156 14.964844 13.265625 14.742188 13.050781 C 14.492188 12.863281 14.273438 12.742188 14.015625 12.5625 C 13.835938 12.316406 13.695312 12.128906 13.527344 11.863281 C 13.023438 11.1875 12.425781 10.628906 12.929688 9.757812 C 13.28125 9.839844 13.550781 9.914062 13.847656 10.074219 C 14.695312 11.46875 15.777344 10.925781 16.824219 10.546875 C 17.488281 10.304688 18.261719 9.980469 18.449219 10.976562 C 18.785156 12.746094 20.0625 13.15625 21.582031 13.429688 C 21.59375 13.777344 21.597656 14.027344 21.535156 14.332031 C 20.28125 15.917969 20.363281 16.800781 21.816406 18.175781 C 21.816406 18.359375 21.816406 18.464844 21.75 18.601562 C 21.570312 18.773438 21.453125 18.910156 21.335938 19.046875 C 21.332031 19.046875 21.335938 19.050781 21.234375 19.050781 C 20.328125 19.074219 19.492188 19.039062 19.148438 20.058594 C 19.148438 20.117188 19.144531 20.234375 19.070312 20.277344 C 18.804688 20.921875 18.605469 21.523438 18.3125 22.128906 C 17.710938 22.277344 17.207031 22.421875 16.625 22.566406 C 16.449219 22.582031 16.347656 22.597656 16.242188 22.613281 Z M 16.242188 22.613281 "/>
<path style=" stroke:none;fill-rule:nonzero;fill:rgb(38.82353%,24.705882%,2.352941%);fill-opacity:1;" d="M 10.433594 11.953125 C 10.558594 11.53125 10.914062 10.980469 10.761719 10.714844 C 10.3125 9.945312 10.675781 9.609375 11.277344 9.324219 C 11.925781 9.019531 12.582031 8.726562 13.261719 8.503906 C 13.863281 8.308594 14.441406 8.238281 14.664062 9.101562 C 14.722656 9.335938 15.167969 9.59375 15.453125 9.617188 C 15.675781 9.636719 16.082031 9.34375 16.136719 9.125 C 16.351562 8.261719 16.914062 8.339844 17.53125 8.539062 C 18.0625 8.710938 18.597656 8.894531 19.097656 9.140625 C 19.816406 9.5 20.648438 9.84375 19.871094 10.886719 C 19.777344 11.011719 19.949219 11.328125 19.933594 11.628906 C 19.636719 11.457031 19.300781 11.246094 19.203125 10.960938 C 18.675781 9.429688 17.917969 9.167969 16.386719 9.824219 C 15.804688 10.070312 15.042969 9.914062 14.347656 9.859375 C 14.175781 8.96875 13.78125 8.769531 12.964844 9.085938 C 11.222656 9.769531 10.988281 10.226562 11.597656 12.105469 C 11.398438 12.410156 11.253906 12.652344 11.050781 12.867188 C 10.925781 12.78125 10.859375 12.71875 10.792969 12.589844 C 10.671875 12.332031 10.550781 12.144531 10.433594 11.953125 Z M 10.433594 11.953125 "/>
<path style=" stroke:none;fill-rule:nonzero;fill:rgb(5.098039%,3.137255%,0.392157%);fill-opacity:1;" d="M 14.363281 9.945312 C 15.042969 9.914062 15.804688 10.070312 16.386719 9.824219 C 17.917969 9.167969 18.675781 9.429688 19.203125 10.960938 C 19.300781 11.246094 19.636719 11.457031 19.953125 11.714844 C 20.234375 11.820312 20.429688 11.914062 20.707031 12.070312 C 20.800781 12.175781 20.816406 12.210938 20.859375 12.316406 C 21.117188 12.699219 21.347656 13.015625 21.574219 13.332031 C 20.0625 13.15625 18.785156 12.746094 18.449219 10.976562 C 18.261719 9.980469 17.488281 10.304688 16.824219 10.546875 C 15.777344 10.925781 14.695312 11.46875 13.9375 10.066406 C 14.121094 9.964844 14.242188 9.953125 14.363281 9.945312 Z M 14.363281 9.945312 "/>
<path style=" stroke:none;fill-rule:nonzero;fill:rgb(32.549021%,20.392157%,1.176471%);fill-opacity:1;" d="M 14.546875 22.15625 C 14.679688 22.191406 14.808594 22.226562 14.988281 22.304688 C 14.648438 22.828125 14.144531 23.761719 13.886719 23.703125 C 12.785156 23.4375 11.730469 22.929688 10.738281 22.371094 C 10.601562 22.292969 10.921875 21.429688 11.128906 20.875 C 11.515625 21.269531 11.804688 21.71875 12.09375 22.167969 C 12.09375 22.167969 12.078125 22.167969 12.109375 22.257812 C 13.0625 23.125 13.609375 23.082031 14.546875 22.15625 Z M 14.546875 22.15625 "/>
<path style=" stroke:none;fill-rule:nonzero;fill:rgb(7.058824%,4.313726%,0.392157%);fill-opacity:1;" d="M 8.730469 14.285156 C 9.835938 14.914062 10.195312 16.050781 9.710938 17.183594 C 9.480469 17.710938 9.375 18.289062 9.132812 18.960938 C 8.839844 19.261719 8.628906 19.445312 8.421875 19.625 C 8.292969 19.40625 8.164062 19.1875 8.097656 18.84375 C 8.257812 18.261719 8.359375 17.800781 8.476562 17.28125 C 8.503906 17.125 8.515625 17.039062 8.527344 16.949219 C 8.625 16.496094 8.726562 16.042969 8.78125 15.449219 C 8.660156 15.195312 8.578125 15.085938 8.507812 14.902344 C 8.589844 14.648438 8.660156 14.464844 8.730469 14.285156 Z M 8.730469 14.285156 "/>
<path style=" stroke:none;fill-rule:nonzero;fill:rgb(36.862746%,23.137255%,1.960784%);fill-opacity:1;" d="M 22.074219 15.488281 C 21.972656 16.105469 21.953125 16.644531 22.734375 16.917969 C 22.96875 17 23.265625 17.503906 23.199219 17.703125 C 22.867188 18.660156 22.449219 19.59375 21.984375 20.5 C 21.90625 20.652344 21.339844 20.765625 21.203125 20.65625 C 20.585938 20.144531 20.183594 20.507812 19.636719 20.871094 C 19.5 20.738281 19.476562 20.617188 19.511719 20.464844 C 19.6875 20.292969 19.804688 20.15625 20.007812 20.015625 C 20.257812 19.984375 20.421875 19.957031 20.683594 19.949219 C 21.761719 20.042969 22.214844 19.421875 22.46875 18.636719 C 22.675781 18 22.636719 17.382812 21.808594 17.027344 C 21.808594 16.402344 21.84375 15.855469 21.929688 15.355469 C 22.007812 15.429688 22.042969 15.457031 22.074219 15.488281 Z M 22.074219 15.488281 "/>
<path style=" stroke:none;fill-rule:nonzero;fill:rgb(5.882353%,3.529412%,0.392157%);fill-opacity:1;" d="M 12.097656 22.074219 C 11.804688 21.71875 11.515625 21.269531 11.144531 20.800781 C 10.746094 20.589844 10.429688 20.398438 10 20.160156 C 9.839844 20.054688 9.78125 20.007812 9.695312 19.902344 C 9.605469 19.648438 9.539062 19.460938 9.46875 19.277344 C 9.746094 19.28125 10.019531 19.296875 10.296875 19.285156 C 11.464844 19.246094 12.082031 19.75 12.054688 20.941406 C 12.046875 21.289062 12.085938 21.636719 12.097656 22.074219 Z M 12.097656 22.074219 "/>
<path style=" stroke:none;fill-rule:nonzero;fill:rgb(14.901961%,9.019608%,0.392157%);fill-opacity:1;" d="M 21.582031 13.429688 C 21.347656 13.015625 21.117188 12.699219 20.960938 12.289062 C 21.386719 12.171875 21.738281 12.152344 22.09375 12.128906 C 22.277344 12.4375 22.460938 12.742188 22.640625 13.230469 C 22.441406 13.941406 22.25 14.46875 22.011719 14.941406 C 21.847656 14.683594 21.726562 14.480469 21.605469 14.28125 C 21.597656 14.027344 21.59375 13.777344 21.582031 13.429688 Z M 21.582031 13.429688 "/>
<path style=" stroke:none;fill-rule:nonzero;fill:rgb(36.862746%,23.137255%,1.960784%);fill-opacity:1;" d="M 17.011719 23.882812 C 16.78125 23.933594 16.613281 23.9375 16.359375 23.949219 C 16.261719 23.71875 16.253906 23.476562 16.351562 23.167969 C 17.039062 23.027344 17.613281 22.949219 18.261719 22.835938 C 18.480469 22.601562 18.628906 22.398438 18.851562 22.179688 C 19.144531 21.917969 19.367188 21.671875 19.589844 21.425781 C 19.769531 21.542969 19.949219 21.65625 20.171875 21.910156 C 20.203125 22.167969 20.195312 22.285156 20.1875 22.402344 C 19.148438 22.878906 18.113281 23.355469 17.011719 23.882812 Z M 17.011719 23.882812 "/>
<path style=" stroke:none;fill-rule:nonzero;fill:rgb(18.039216%,10.588235%,0.392157%);fill-opacity:1;" d="M 8.734375 14.199219 C 8.660156 14.464844 8.589844 14.648438 8.429688 14.867188 C 8.257812 14.257812 8.179688 13.609375 8.101562 12.960938 C 8.128906 12.886719 8.15625 12.808594 8.292969 12.660156 C 8.910156 12.375 9.421875 12.167969 9.933594 11.957031 C 10.046875 11.960938 10.15625 11.960938 10.351562 11.960938 C 10.550781 12.144531 10.671875 12.332031 10.703125 12.582031 C 10.144531 12.789062 9.671875 12.9375 9.203125 13.085938 C 9.046875 13.429688 8.890625 13.769531 8.734375 14.199219 Z M 8.734375 14.199219 "/>
<path style=" stroke:none;fill-rule:nonzero;fill:rgb(5.098039%,3.137255%,0.392157%);fill-opacity:1;" d="M 19.585938 21.347656 C 19.367188 21.671875 19.144531 21.917969 18.757812 22.160156 C 18.535156 22.148438 18.472656 22.136719 18.410156 22.125 C 18.605469 21.523438 18.804688 20.921875 19.121094 20.324219 C 19.3125 20.382812 19.382812 20.441406 19.453125 20.5 C 19.476562 20.617188 19.5 20.738281 19.566406 20.902344 C 19.597656 21.054688 19.589844 21.160156 19.585938 21.347656 Z M 19.585938 21.347656 "/>
<path style=" stroke:none;fill-rule:nonzero;fill:rgb(38.82353%,24.705882%,2.352941%);fill-opacity:1;" d="M 8.035156 13.011719 C 8.179688 13.609375 8.257812 14.257812 8.417969 14.9375 C 8.578125 15.085938 8.660156 15.195312 8.746094 15.375 C 7.128906 15.28125 7.011719 14.925781 8.035156 13.011719 Z M 8.035156 13.011719 "/>
<path style=" stroke:none;fill-rule:nonzero;fill:rgb(36.862746%,23.137255%,1.960784%);fill-opacity:1;" d="M 22.054688 14.996094 C 22.25 14.46875 22.441406 13.941406 22.664062 13.304688 C 23.582031 14.644531 23.496094 15.085938 22.164062 15.46875 C 22.042969 15.457031 22.007812 15.429688 21.957031 15.304688 C 21.980469 15.136719 22.015625 15.066406 22.054688 14.996094 Z M 22.054688 14.996094 "/>
<path style=" stroke:none;fill-rule:nonzero;fill:rgb(38.82353%,24.705882%,2.352941%);fill-opacity:1;" d="M 9.898438 11.886719 C 9.421875 12.167969 8.910156 12.375 8.324219 12.609375 C 8.742188 11.214844 8.972656 11.09375 9.898438 11.886719 Z M 9.898438 11.886719 "/>
<path style=" stroke:none;fill-rule:nonzero;fill:rgb(32.549021%,20.392157%,1.176471%);fill-opacity:1;" d="M 9.714844 19.972656 C 9.78125 20.007812 9.839844 20.054688 9.917969 20.15625 C 9.242188 21.28125 8.796875 20.816406 8.507812 19.878906 C 8.96875 19.855469 9.34375 19.914062 9.714844 19.972656 Z M 9.714844 19.972656 "/>
<path style=" stroke:none;fill-rule:nonzero;fill:rgb(38.82353%,24.705882%,2.352941%);fill-opacity:1;" d="M 8.433594 16.925781 C 8.515625 17.039062 8.503906 17.125 8.398438 17.296875 C 8.164062 17.8125 8.023438 18.246094 7.882812 18.683594 C 7.105469 17.363281 7.171875 17.105469 8.433594 16.925781 Z M 8.433594 16.925781 "/>
<path style=" stroke:none;fill-rule:nonzero;fill:rgb(16.078432%,9.803922%,0.392157%);fill-opacity:1;" d="M 18.191406 22.871094 C 17.613281 22.949219 17.039062 23.027344 16.386719 23.082031 C 16.28125 22.960938 16.253906 22.863281 16.238281 22.691406 C 16.347656 22.597656 16.449219 22.582031 16.722656 22.578125 C 17.328125 22.683594 17.757812 22.777344 18.191406 22.871094 Z M 18.191406 22.871094 "/>
<path style=" stroke:none;fill-rule:nonzero;fill:rgb(17.254902%,10.588235%,0.392157%);fill-opacity:1;" d="M 9.695312 19.902344 C 9.34375 19.914062 8.96875 19.855469 8.503906 19.796875 C 8.40625 19.792969 8.382812 19.707031 8.402344 19.667969 C 8.628906 19.445312 8.839844 19.261719 9.132812 19.058594 C 9.277344 19.085938 9.335938 19.136719 9.429688 19.234375 C 9.539062 19.460938 9.605469 19.648438 9.695312 19.902344 Z M 9.695312 19.902344 "/>
<path style=" stroke:none;fill-rule:nonzero;fill:rgb(17.254902%,10.588235%,0.392157%);fill-opacity:1;" d="M 7.90625 18.726562 C 8.023438 18.246094 8.164062 17.8125 8.382812 17.359375 C 8.359375 17.800781 8.257812 18.261719 8.085938 18.765625 C 8.015625 18.816406 7.929688 18.769531 7.90625 18.726562 Z M 7.90625 18.726562 "/>
<path style=" stroke:none;fill-rule:nonzero;fill:rgb(36.862746%,23.137255%,1.960784%);fill-opacity:1;" d="M 22.09375 12.0625 C 21.738281 12.152344 21.386719 12.171875 20.929688 12.222656 C 20.816406 12.210938 20.800781 12.175781 20.789062 12.078125 C 20.847656 11.933594 20.90625 11.847656 21.125 11.714844 C 21.484375 11.65625 21.683594 11.648438 21.882812 11.640625 C 21.953125 11.757812 22.023438 11.875 22.09375 12.0625 Z M 22.09375 12.0625 "/>
<path style=" stroke:none;fill-rule:nonzero;fill:rgb(80.784315%,59.215689%,18.431373%);fill-opacity:1;" d="M 18.921875 24.800781 C 18.84375 24.925781 18.734375 24.984375 18.558594 25.0625 C 18.445312 25.058594 18.398438 25.039062 18.273438 24.996094 C 18.300781 24.542969 18.4375 24.203125 18.921875 24.800781 Z M 18.921875 24.800781 "/>
<path style=" stroke:none;fill-rule:nonzero;fill:rgb(38.82353%,24.705882%,2.352941%);fill-opacity:1;" d="M 21.851562 11.582031 C 21.683594 11.648438 21.484375 11.65625 21.1875 11.664062 C 21.335938 11.621094 21.578125 11.574219 21.851562 11.582031 Z M 21.851562 11.582031 "/>
<path style=" stroke:none;fill-rule:nonzero;fill:rgb(65.490198%,46.27451%,10.588235%);fill-opacity:1;" d="M 20.234375 22.378906 C 20.195312 22.285156 20.203125 22.167969 20.230469 21.964844 C 20.257812 22.039062 20.269531 22.195312 20.234375 22.378906 Z M 20.234375 22.378906 "/>
<path style=" stroke:none;fill-rule:nonzero;fill:rgb(18.431373%,10.980392%,0.784314%);fill-opacity:1;" d="M 14.347656 9.859375 C 14.242188 9.953125 14.121094 9.964844 13.910156 9.984375 C 13.550781 9.914062 13.28125 9.839844 12.847656 9.78125 C 11.65625 10.566406 11.679688 11.082031 12.785156 11.640625 C 13.03125 11.765625 13.300781 11.839844 13.558594 11.9375 C 13.695312 12.128906 13.835938 12.316406 14.0625 12.625 C 14.355469 12.867188 14.566406 12.992188 14.777344 13.121094 C 14.964844 13.265625 15.15625 13.410156 15.4375 13.648438 C 15.613281 13.976562 15.699219 14.210938 15.699219 14.441406 C 15.117188 14.292969 14.625 14.148438 14.082031 13.953125 C 13.867188 13.734375 13.703125 13.566406 13.507812 13.339844 C 13.402344 13.234375 13.332031 13.1875 13.195312 13.09375 C 12.640625 12.710938 12.148438 12.378906 11.65625 12.042969 C 10.988281 10.226562 11.222656 9.769531 12.964844 9.085938 C 13.78125 8.769531 14.175781 8.96875 14.347656 9.859375 Z M 14.347656 9.859375 "/>
<path style=" stroke:none;fill-rule:nonzero;fill:rgb(7.450981%,4.313726%,0.392157%);fill-opacity:1;" d="M 15.785156 14.445312 C 15.699219 14.210938 15.613281 13.976562 15.503906 13.671875 C 17.148438 13.882812 18.003906 14.953125 17.773438 16.453125 C 17.53125 17.996094 16.386719 18.839844 14.746094 18.511719 C 14.242188 18.410156 13.832031 17.878906 13.441406 17.460938 C 13.617188 17.375 13.734375 17.375 13.925781 17.40625 C 15.433594 18.152344 16.203125 18.066406 16.824219 17.066406 C 17.34375 16.230469 17.238281 15.480469 16.296875 14.871094 C 16.09375 14.691406 15.941406 14.566406 15.785156 14.445312 Z M 15.785156 14.445312 "/>
<path style=" stroke:none;fill-rule:nonzero;fill:rgb(7.058824%,4.313726%,0.392157%);fill-opacity:1;" d="M 13.851562 17.371094 C 13.734375 17.375 13.617188 17.375 13.414062 17.378906 C 12.421875 16.328125 11.539062 15.257812 10.609375 14.226562 C 10.246094 13.820312 9.78125 13.5 9.28125 13.113281 C 9.671875 12.9375 10.144531 12.789062 10.703125 12.648438 C 10.859375 12.71875 10.925781 12.78125 11.070312 12.910156 C 11.152344 12.984375 11.179688 13.078125 11.140625 13.128906 C 11.273438 13.320312 11.441406 13.460938 11.660156 13.644531 C 11.769531 13.792969 11.832031 13.898438 11.886719 14.074219 C 12.050781 14.25 12.21875 14.359375 12.449219 14.503906 C 12.628906 14.679688 12.75 14.820312 12.835938 15.035156 C 13.152344 15.863281 13.503906 16.617188 13.851562 17.371094 Z M 13.851562 17.371094 "/>
<path style=" stroke:none;fill-rule:nonzero;fill:rgb(5.098039%,3.137255%,0.392157%);fill-opacity:1;" d="M 22.011719 14.941406 C 22.015625 15.066406 21.980469 15.136719 21.910156 15.257812 C 21.84375 15.855469 21.808594 16.402344 21.8125 17.101562 C 21.84375 17.535156 21.828125 17.816406 21.816406 18.09375 C 20.363281 16.800781 20.28125 15.917969 21.535156 14.332031 C 21.726562 14.480469 21.847656 14.683594 22.011719 14.941406 Z M 22.011719 14.941406 "/>
<path style=" stroke:none;fill-rule:nonzero;fill:rgb(14.901961%,9.019608%,0.392157%);fill-opacity:1;" d="M 21.816406 18.175781 C 21.828125 17.816406 21.84375 17.535156 21.851562 17.179688 C 22.636719 17.382812 22.675781 18 22.46875 18.636719 C 22.214844 19.421875 21.761719 20.042969 20.714844 19.886719 C 20.882812 19.554688 21.109375 19.300781 21.335938 19.050781 C 21.335938 19.050781 21.332031 19.046875 21.398438 19.019531 C 21.578125 18.847656 21.695312 18.710938 21.8125 18.570312 C 21.816406 18.464844 21.816406 18.359375 21.816406 18.175781 Z M 21.816406 18.175781 "/>
<path style=" stroke:none;fill-rule:nonzero;fill:rgb(8.627451%,5.098039%,0.392157%);fill-opacity:1;" d="M 14.511719 22.097656 C 13.609375 23.082031 13.0625 23.125 12.113281 22.265625 C 12.878906 22.136719 13.679688 22.089844 14.511719 22.097656 Z M 14.511719 22.097656 "/>
<path style=" stroke:none;fill-rule:nonzero;fill:rgb(5.098039%,3.137255%,0.392157%);fill-opacity:1;" d="M 13.527344 11.863281 C 13.300781 11.839844 13.03125 11.765625 12.785156 11.640625 C 11.679688 11.082031 11.65625 10.566406 12.765625 9.777344 C 12.425781 10.628906 13.023438 11.1875 13.527344 11.863281 Z M 13.527344 11.863281 "/>
<path style=" stroke:none;fill-rule:nonzero;fill:rgb(5.098039%,3.137255%,0.392157%);fill-opacity:1;" d="M 21.234375 19.050781 C 21.109375 19.300781 20.882812 19.554688 20.625 19.871094 C 20.421875 19.957031 20.257812 19.984375 19.914062 20.011719 C 19.539062 20.007812 19.34375 20.003906 19.152344 20 C 19.492188 19.039062 20.328125 19.074219 21.234375 19.050781 Z M 21.234375 19.050781 "/>
<path style=" stroke:none;fill-rule:nonzero;fill:rgb(8.627451%,5.098039%,0.392157%);fill-opacity:1;" d="M 18.261719 22.835938 C 17.757812 22.777344 17.328125 22.683594 16.800781 22.578125 C 17.207031 22.421875 17.710938 22.277344 18.3125 22.128906 C 18.472656 22.136719 18.535156 22.148438 18.6875 22.175781 C 18.628906 22.398438 18.480469 22.601562 18.261719 22.835938 Z M 18.261719 22.835938 "/>
<path style=" stroke:none;fill-rule:nonzero;fill:rgb(5.098039%,3.137255%,0.392157%);fill-opacity:1;" d="M 14.742188 13.050781 C 14.566406 12.992188 14.355469 12.867188 14.101562 12.679688 C 14.273438 12.742188 14.492188 12.863281 14.742188 13.050781 Z M 14.742188 13.050781 "/>
<path style=" stroke:none;fill-rule:nonzero;fill:rgb(8.627451%,5.098039%,0.392157%);fill-opacity:1;" d="M 19.148438 20.058594 C 19.34375 20.003906 19.539062 20.007812 19.828125 20.019531 C 19.804688 20.15625 19.6875 20.292969 19.511719 20.464844 C 19.382812 20.441406 19.3125 20.382812 19.191406 20.28125 C 19.144531 20.234375 19.148438 20.117188 19.148438 20.058594 Z M 19.148438 20.058594 "/>
<path style=" stroke:none;fill-rule:nonzero;fill:rgb(5.098039%,3.137255%,0.392157%);fill-opacity:1;" d="M 21.75 18.601562 C 21.695312 18.710938 21.578125 18.847656 21.398438 19.019531 C 21.453125 18.910156 21.570312 18.773438 21.75 18.601562 Z M 21.75 18.601562 "/>
<path style=" stroke:none;fill-rule:nonzero;fill:rgb(77.254903%,56.078434%,16.470589%);fill-opacity:1;" d="M 12.867188 14.960938 C 12.75 14.820312 12.628906 14.679688 12.433594 14.433594 C 12.203125 14.21875 12.050781 14.113281 11.898438 14.007812 C 11.832031 13.898438 11.769531 13.792969 11.648438 13.574219 C 11.453125 13.332031 11.316406 13.207031 11.179688 13.078125 C 11.179688 13.078125 11.152344 12.984375 11.132812 12.9375 C 11.253906 12.652344 11.398438 12.410156 11.597656 12.105469 C 12.148438 12.378906 12.640625 12.710938 13.222656 13.152344 C 13.390625 13.304688 13.464844 13.351562 13.539062 13.398438 C 13.703125 13.566406 13.867188 13.734375 14.089844 14.039062 C 14.847656 14.527344 15.542969 14.886719 16.289062 15.324219 C 16.6875 16.8125 15.988281 17.804688 14.898438 17.328125 C 14.378906 17.101562 14.132812 16.273438 13.761719 15.664062 C 13.722656 15.53125 13.664062 15.480469 13.542969 15.394531 C 13.292969 15.207031 13.082031 15.085938 12.867188 14.960938 Z M 12.867188 14.960938 "/>
<path style=" stroke:none;fill-rule:nonzero;fill:rgb(38.82353%,24.705882%,2.352941%);fill-opacity:1;" d="M 16.242188 15.242188 C 15.542969 14.886719 14.847656 14.527344 14.140625 14.085938 C 14.625 14.148438 15.117188 14.292969 15.699219 14.441406 C 15.941406 14.566406 16.09375 14.691406 16.269531 14.949219 C 16.269531 15.136719 16.257812 15.191406 16.242188 15.242188 Z M 16.242188 15.242188 "/>
<path style=" stroke:none;fill-rule:nonzero;fill:rgb(38.82353%,24.705882%,2.352941%);fill-opacity:1;" d="M 13.507812 13.339844 C 13.464844 13.351562 13.390625 13.304688 13.285156 13.199219 C 13.332031 13.1875 13.402344 13.234375 13.507812 13.339844 Z M 13.507812 13.339844 "/>
<path style=" stroke:none;fill-rule:nonzero;fill:rgb(26.274511%,16.470589%,1.176471%);fill-opacity:1;" d="M 16.289062 15.324219 C 16.257812 15.191406 16.269531 15.136719 16.316406 15.003906 C 17.238281 15.480469 17.34375 16.230469 16.824219 17.066406 C 16.203125 18.066406 15.433594 18.152344 13.925781 17.40625 C 13.503906 16.617188 13.152344 15.863281 12.835938 15.035156 C 13.082031 15.085938 13.292969 15.207031 13.566406 15.441406 C 13.664062 15.617188 13.710938 15.671875 13.761719 15.71875 C 14.132812 16.273438 14.378906 17.101562 14.898438 17.328125 C 15.988281 17.804688 16.6875 16.8125 16.289062 15.324219 Z M 16.289062 15.324219 "/>
<path style=" stroke:none;fill-rule:nonzero;fill:rgb(26.274511%,16.470589%,1.176471%);fill-opacity:1;" d="M 11.886719 14.074219 C 12.050781 14.113281 12.203125 14.21875 12.375 14.398438 C 12.21875 14.359375 12.050781 14.25 11.886719 14.074219 Z M 11.886719 14.074219 "/>
<path style=" stroke:none;fill-rule:nonzero;fill:rgb(38.82353%,24.705882%,2.352941%);fill-opacity:1;" d="M 11.140625 13.128906 C 11.316406 13.207031 11.453125 13.332031 11.601562 13.53125 C 11.441406 13.460938 11.273438 13.320312 11.140625 13.128906 Z M 11.140625 13.128906 "/>
<path style=" stroke:none;fill-rule:nonzero;fill:rgb(38.82353%,24.705882%,2.352941%);fill-opacity:1;" d="M 13.761719 15.664062 C 13.710938 15.671875 13.664062 15.617188 13.605469 15.507812 C 13.664062 15.480469 13.722656 15.53125 13.761719 15.664062 Z M 13.761719 15.664062 "/>
</g>
</svg>
